ffmpeg version 3.4.8-0ubuntu0.2 Copyright (c) 2000-2020 the FFmpeg developers
  built with gcc 7 (Ubuntu 7.5.0-3ubuntu1~18.04)
  configuration: --prefix=/usr --extra-version=0ubuntu0.2 --toolchain=hardened --libdir=/usr/lib/x86_64-linux-gnu --incdir=/usr/include/x86_64-linux-gnu --enable-gpl --disable-stripping --enable-avresample --enable-avisynth --enable-gnutls --enable-ladspa --enable-libass --enable-libbluray --enable-libbs2b --enable-libcaca --enable-libcdio --enable-libflite --enable-libfontconfig --enable-libfreetype --enable-libfribidi --enable-libgme --enable-libgsm --enable-libmp3lame --enable-libmysofa --enable-libopenjpeg --enable-libopenmpt --enable-libopus --enable-libpulse --enable-librubberband --enable-librsvg --enable-libshine --enable-libsnappy --enable-libsoxr --enable-libspeex --enable-libssh --enable-libtheora --enable-libtwolame --enable-libvorbis --enable-libvpx --enable-libwavpack --enable-libwebp --enable-libx265 --enable-libxml2 --enable-libxvid --enable-libzmq --enable-libzvbi --enable-omx --enable-openal --enable-opengl --enable-sdl2 --enable-libdc1394 --enable-libdrm --enable-libiec61883 --enable-chromaprint --enable-frei0r --enable-libopencv --enable-libx264 --enable-shared
  libavutil      55. 78.100 / 55. 78.100
  libavcodec     57.107.100 / 57.107.100
  libavformat    57. 83.100 / 57. 83.100
  libavdevice    57. 10.100 / 57. 10.100
  libavfilter     6.107.100 /  6.107.100
  libavresample   3.  7.  0 /  3.  7.  0
  libswscale      4.  8.100 /  4.  8.100
  libswresample   2.  9.100 /  2.  9.100
  libpostproc    54.  7.100 / 54.  7.100
[rawvideo @ 0x55abfd380a20] Estimating duration from bitrate, this may be inaccurate
Input #0, rawvideo, from '../../SVC-Encoder-20220109T061506Z-001/SVC-Encoder/Dataset/RollerCoaster/ERP_8x8/tile_yuv/Tile_39_480x240.yuv':
  Duration: 00:00:10.00, start: 0.000000, bitrate: 41472 kb/s
    Stream #0:0: Video: rawvideo (I420 / 0x30323449), yuv420p, 480x240, 41472 kb/s, 30 tbr, 30 tbn, 30 tbc
Stream mapping:
  Stream #0:0 -> #0:0 (rawvideo (native) -> h264 (libx264))
Press [q] to stop, [?] for help
[libx264 @ 0x55abfd38dc60] using cpu capabilities: MMX2 SSE2Fast LZCNT SSSE3 SSE4.2 AVX
[libx264 @ 0x55abfd38dc60] profile High, level 2.1
Output #0, rawvideo, to 'RollerCoaster_Tile_39_480x240_x264_QP_24.h264':
  Metadata:
    encoder         : Lavf57.83.100
    Stream #0:0: Video: h264 (libx264), yuv420p, 480x240, q=-1--1, 30 fps, 30 tbn, 30 tbc
    Metadata:
      encoder         : Lavc57.107.100 libx264
    Side data:
      cpb: bitrate max/min/avg: 0/0/0 buffer size: 0 vbv_delay: -1
frame=  121 fps=0.0 q=30.0 PSNR=Y:nan U:nan V:nan *:nan size=     158kB time=00:00:02.60 bitrate= 498.7kbits/s speed=5.16x    frame=  225 fps=223 q=30.0 PSNR=Y:nan U:nan V:nan *:nan size=     256kB time=00:00:06.06 bitrate= 345.7kbits/s speed=6.02x    frame=  300 fps=194 q=30.0 LPSNR=Y:inf U:inf V:inf *:inf size=     552kB time=00:00:09.93 bitrate= 455.5kbits/s speed=6.43x    
video:552kB audio:0kB subtitle:0kB other streams:0kB global headers:0kB muxing overhead: 0.000000%
[libx264 @ 0x55abfd38dc60] frame I:2     Avg QP:21.88  size: 20452  PSNR Mean Y:44.12 U:48.15 V:49.26 Avg:45.18 Global:45.13
[libx264 @ 0x55abfd38dc60] frame P:76    Avg QP:24.00  size:  4874  PSNR Mean Y:40.61 U:47.16 V:48.04 Avg:41.95 Global:41.88
[libx264 @ 0x55abfd38dc60] frame B:222   Avg QP:29.44  size:   695  PSNR Mean Y:39.84 U:46.89 V:47.67 Avg:41.22 Global:41.18
[libx264 @ 0x55abfd38dc60] consecutive B-frames:  1.3%  0.0%  0.0% 98.7%
[libx264 @ 0x55abfd38dc60] mb I  I16..4:  2.8% 74.3% 22.9%
[libx264 @ 0x55abfd38dc60] mb P  I16..4:  0.3%  2.2%  0.8%  P16..4: 40.2% 29.3% 17.5%  0.0%  0.0%    skip: 9.8%
[libx264 @ 0x55abfd38dc60] mb B  I16..4:  0.0%  0.2%  0.0%  B16..8: 50.8%  8.6%  1.2%  direct: 0.7%  skip:38.4%  L0:42.1% L1:47.3% BI:10.6%
[libx264 @ 0x55abfd38dc60] 8x8 transform intra:71.2% inter:63.3%
[libx264 @ 0x55abfd38dc60] coded y,uvDC,uvAC intra: 87.5% 90.7% 52.2% inter: 15.9% 12.3% 0.2%
[libx264 @ 0x55abfd38dc60] i16 v,h,dc,p: 34% 12% 35% 18%
[libx264 @ 0x55abfd38dc60] i8 v,h,dc,ddl,ddr,vr,hd,vl,hu: 18% 10% 12%  5%  7% 16%  7%  9% 15%
[libx264 @ 0x55abfd38dc60] i4 v,h,dc,ddl,ddr,vr,hd,vl,hu: 23% 12% 15%  6%  8% 15%  6%  7%  8%
[libx264 @ 0x55abfd38dc60] i8c dc,h,v,p: 40% 15% 29% 16%
[libx264 @ 0x55abfd38dc60] Weighted P-Frames: Y:0.0% UV:0.0%
[libx264 @ 0x55abfd38dc60] ref P L0: 59.9% 20.5% 16.4%  3.3%
[libx264 @ 0x55abfd38dc60] ref B L0: 91.6%  7.6%  0.8%
[libx264 @ 0x55abfd38dc60] ref B L1: 94.1%  5.9%
[libx264 @ 0x55abfd38dc60] PSNR Mean Y:40.064 U:46.964 V:47.772 Avg:41.434 Global:41.364 kb/s:452.47
